<svg width="184" height="79" viewBox="0 0 184 79" fill="none" xmlns="http://www.w3.org/2000/svg">
<mask id="mask0_343_482" style="mask-type:alpha" maskUnits="userSpaceOnUse" x="0" y="0" width="184" height="79">
<g clip-path="url(#clip0_343_482)">
<g clip-path="url(#clip1_343_482)">
<path d="M114.635 77.9057C125.747 77.9057 135.025 71.2486 137.255 62.3741C139.487 71.2486 148.765 77.9057 159.877 77.9057C172.655 77.9057 183.013 69.1062 183.013 58.2508C183.013 48.8099 175.177 40.9275 164.731 39.0324C175.177 37.1374 183.013 29.2549 183.013 19.814C183.013 8.95867 172.655 0.15918 159.877 0.15918C148.765 0.15918 139.487 6.81622 137.255 15.6908C135.025 6.81622 125.747 0.15918 114.635 0.15918C103.523 0.15918 94.2447 6.81622 92.0139 15.6908C89.7831 6.81622 80.5048 0.15918 69.3932 0.15918C58.2808 0.15918 49.0024 6.81622 46.7716 15.6908C44.5408 6.81622 35.2625 0.15918 24.1509 0.15918C11.3731 0.15918 1.01514 8.95867 1.01514 19.814C1.01514 29.2549 8.85075 37.1374 19.2971 39.0324C8.85075 40.9275 1.01514 48.8099 1.01514 58.2508C1.01514 69.1062 11.3731 77.9057 24.1509 77.9057C35.2625 77.9057 44.5408 71.2486 46.7716 62.3741C49.0024 71.2486 58.2808 77.9057 69.3932 77.9057C80.5048 77.9057 89.7831 71.2486 92.0139 62.3741C94.2438 71.2486 103.523 77.9057 114.635 77.9057Z" fill="#37B669"/>
</g>
</g>
</mask>
<g mask="url(#mask0_343_482)">
<rect width="183.78" height="78.63" fill="#DC2626"/>
</g>
<path d="M68.5 39.4756V38.1084H73.8594V43.71H72.6562L72.2891 42.0928C71.6484 43.3115 70.3672 43.9756 68.5391 43.9756C65.4609 43.9756 63.6172 42.1084 63.6172 38.4443V37.8975C63.6172 34.1787 65.5625 32.2412 68.9219 32.2412C72.0234 32.2412 73.6172 33.8818 73.7188 36.3975H71.8594C71.7578 34.71 70.7031 33.624 68.8984 33.624C66.8828 33.624 65.5078 34.9912 65.5078 37.8037V38.4131C65.5078 41.2803 66.8125 42.6006 68.9375 42.6006C70.9062 42.6006 72.0469 41.4365 72.0469 39.8037V39.4756H68.5ZM83.1328 43.71V38.6709H77.3359V43.71H75.5078V32.5068H77.3359V37.2959H83.1328V32.5068H84.9609V43.71H83.1328ZM85.9531 43.71L90.1719 32.5068H92.1953L96.4141 43.71H94.4844L93.5156 40.9678H88.7812L87.8203 43.71H85.9531ZM89.2422 39.6631H93.0469L91.1406 34.2646L89.2422 39.6631ZM97.4141 43.71V32.5068H99.5781L105.188 41.0615V32.5068H106.883V43.71H105.078L99.1094 34.6084V43.71H97.4141ZM107.875 43.71L112.094 32.5068H114.117L118.336 43.71H116.406L115.438 40.9678H110.703L109.742 43.71H107.875ZM111.164 39.6631H114.969L113.062 34.2646L111.164 39.6631Z" fill="white"/>
<path d="M63 39.7256H118.438V40.5068H63V39.7256Z" fill="white"/>
<defs>
<clipPath id="clip0_343_482">
<rect width="183.78" height="78.63" fill="white"/>
</clipPath>
<clipPath id="clip1_343_482">
<rect width="183.764" height="78.63" fill="white" transform="translate(0.0078125)"/>
</clipPath>
</defs>
</svg>
