<svg width="184" height="79" viewBox="0 0 184 79" fill="none" xmlns="http://www.w3.org/2000/svg">
<mask id="mask0_343_466" style="mask-type:alpha" maskUnits="userSpaceOnUse" x="0" y="0" width="184" height="79">
<g clip-path="url(#clip0_343_466)">
<g clip-path="url(#clip1_343_466)">
<path d="M114.635 77.9057C125.747 77.9057 135.025 71.2486 137.255 62.3741C139.487 71.2486 148.765 77.9057 159.877 77.9057C172.655 77.9057 183.013 69.1062 183.013 58.2508C183.013 48.8099 175.177 40.9275 164.731 39.0324C175.177 37.1374 183.013 29.2549 183.013 19.814C183.013 8.95867 172.655 0.15918 159.877 0.15918C148.765 0.15918 139.487 6.81622 137.255 15.6908C135.025 6.81622 125.747 0.15918 114.635 0.15918C103.523 0.15918 94.2447 6.81622 92.0139 15.6908C89.7831 6.81622 80.5048 0.15918 69.3932 0.15918C58.2808 0.15918 49.0024 6.81622 46.7716 15.6908C44.5408 6.81622 35.2625 0.15918 24.1509 0.15918C11.3731 0.15918 1.01514 8.95867 1.01514 19.814C1.01514 29.2549 8.85075 37.1374 19.2971 39.0324C8.85075 40.9275 1.01514 48.8099 1.01514 58.2508C1.01514 69.1062 11.3731 77.9057 24.1509 77.9057C35.2625 77.9057 44.5408 71.2486 46.7716 62.3741C49.0024 71.2486 58.2808 77.9057 69.3932 77.9057C80.5048 77.9057 89.7831 71.2486 92.0139 62.3741C94.2438 71.2486 103.523 77.9057 114.635 77.9057Z" fill="#37B669"/>
</g>
</g>
</mask>
<g mask="url(#mask0_343_466)">
<rect width="183.78" height="78.63" fill="#16A34A"/>
</g>
<path d="M36.3516 43.9756C32.9453 43.9756 31.5938 42.5615 31.5547 40.1475H33.3906C33.4453 41.7334 34.3516 42.6475 36.4531 42.6475C38.4297 42.6475 39.2344 41.835 39.2344 40.6865V40.5771C39.2344 39.6787 38.7344 39.1709 37.6875 39.0303L34.3594 38.5615C32.6562 38.3271 31.7109 37.374 31.7109 35.7725V35.624C31.7109 33.6475 33.1094 32.2412 36.2344 32.2412C39.3203 32.2412 40.6172 33.6006 40.6484 35.7256H38.8281C38.75 34.3428 38.0078 33.5693 36.1641 33.5693C34.3281 33.5693 33.5547 34.3506 33.5547 35.4834V35.5928C33.5547 36.499 34.0703 36.999 35.0781 37.1396L38.4453 37.6162C40.1484 37.8584 41.0781 38.7959 41.0781 40.4131V40.5771C41.0781 42.5693 39.6875 43.9756 36.3516 43.9756ZM47.4844 43.9756C44.1953 43.9756 42.25 42.0303 42.25 38.335V37.8818C42.25 34.1865 44.1953 32.2412 47.4844 32.2412C50.7656 32.2412 52.7109 34.1865 52.7109 37.8818V38.335C52.7109 42.0303 50.7656 43.9756 47.4844 43.9756ZM47.4844 42.5928C49.4453 42.5928 50.8125 41.2256 50.8125 38.4209V37.7959C50.8125 34.9912 49.4453 33.624 47.4844 33.624C45.5156 33.624 44.1484 34.9912 44.1484 37.7959V38.4209C44.1484 41.2256 45.5156 42.5928 47.4844 42.5928ZM58.8594 43.9678C55.6562 43.9678 54.2109 42.5303 54.2109 40.1084V32.5068H56.0391V39.999C56.0391 41.6318 57 42.6006 58.875 42.6006C60.7344 42.6006 61.7031 41.6318 61.7031 39.999V32.5068H63.4766V40.1084C63.4766 42.5303 62.0391 43.9678 58.8594 43.9678ZM68.25 43.71V33.8896H64.5156V32.5068H73.8047V33.8896H70.0703V43.71H68.25ZM82.6328 43.71V38.6709H76.8359V43.71H75.0078V32.5068H76.8359V37.2959H82.6328V32.5068H84.4609V43.71H82.6328ZM86.2266 39.5303V38.2412H91.375V39.5303H86.2266ZM91.8594 43.71L96.0781 32.5068H98.1016L102.32 43.71H100.391L99.4219 40.9678H94.6875L93.7266 43.71H91.8594ZM95.1484 39.6631H98.9531L97.0469 34.2646L95.1484 39.6631ZM103.32 43.71V32.5068H111.352V33.8818H105.148V37.4131H110.562V38.7725H105.148V43.71H103.32ZM112.555 43.71V32.5068H118.32C120.406 32.5068 121.688 33.7881 121.688 35.7021V35.8584C121.688 37.335 120.922 38.3506 119.539 38.6631C120.234 38.8662 120.648 39.4209 120.906 40.46L121.227 41.8037C121.469 42.7725 121.742 43.3662 122.094 43.6318V43.71H119.922C119.711 43.2725 119.578 42.749 119.398 41.9053L119.188 40.874C118.953 39.749 118.414 39.2725 117.391 39.2725H114.383V43.71H112.555ZM117.859 37.9521C119.102 37.9521 119.859 37.1943 119.859 35.9834V35.8271C119.859 34.6318 119.102 33.874 117.859 33.874H114.383V37.9521H117.859ZM123.211 43.71V32.5068H125.039V43.71H123.211ZM131.82 43.9756C128.492 43.9756 126.547 42.0303 126.547 38.335V37.8818C126.547 34.1865 128.492 32.2412 131.828 32.2412C134.945 32.2412 136.547 33.8896 136.633 36.4756V36.4834H134.773V36.4678C134.68 34.71 133.625 33.624 131.805 33.624C129.812 33.624 128.445 34.9912 128.445 37.7959V38.4209C128.445 41.2256 129.812 42.5928 131.812 42.5928C133.641 42.5928 134.797 41.4834 134.867 39.6631V39.6475H136.727V39.6553C136.68 42.3037 135.023 43.9756 131.82 43.9756ZM137.172 43.71L141.391 32.5068H143.414L147.633 43.71H145.703L144.734 40.9678H140L139.039 43.71H137.172ZM140.461 39.6631H144.266L142.359 34.2646L140.461 39.6631Z" fill="#F2F2F2"/>
<path d="M31 39.7256H147.734V40.5068H31V39.7256Z" fill="#F2F2F2"/>
<defs>
<clipPath id="clip0_343_466">
<rect width="183.78" height="78.63" fill="white"/>
</clipPath>
<clipPath id="clip1_343_466">
<rect width="183.764" height="78.63" fill="white" transform="translate(0.0078125)"/>
</clipPath>
</defs>
</svg>
