<svg width="184" height="79" viewBox="0 0 184 79" fill="none" xmlns="http://www.w3.org/2000/svg">
<mask id="mask0_343_458" style="mask-type:alpha" maskUnits="userSpaceOnUse" x="0" y="0" width="184" height="79">
<g clip-path="url(#clip0_343_458)">
<g clip-path="url(#clip1_343_458)">
<path d="M114.635 77.9057C125.747 77.9057 135.025 71.2486 137.255 62.3741C139.487 71.2486 148.765 77.9057 159.877 77.9057C172.655 77.9057 183.013 69.1062 183.013 58.2508C183.013 48.8099 175.177 40.9275 164.731 39.0324C175.177 37.1374 183.013 29.2549 183.013 19.814C183.013 8.95867 172.655 0.15918 159.877 0.15918C148.765 0.15918 139.487 6.81622 137.255 15.6908C135.025 6.81622 125.747 0.15918 114.635 0.15918C103.523 0.15918 94.2447 6.81622 92.0139 15.6908C89.7831 6.81622 80.5048 0.15918 69.3932 0.15918C58.2808 0.15918 49.0024 6.81622 46.7716 15.6908C44.5408 6.81622 35.2625 0.15918 24.1509 0.15918C11.3731 0.15918 1.01514 8.95867 1.01514 19.814C1.01514 29.2549 8.85075 37.1374 19.2971 39.0324C8.85075 40.9275 1.01514 48.8099 1.01514 58.2508C1.01514 69.1062 11.3731 77.9057 24.1509 77.9057C35.2625 77.9057 44.5408 71.2486 46.7716 62.3741C49.0024 71.2486 58.2808 77.9057 69.3932 77.9057C80.5048 77.9057 89.7831 71.2486 92.0139 62.3741C94.2438 71.2486 103.523 77.9057 114.635 77.9057Z" fill="#37B669"/>
</g>
</g>
</mask>
<g mask="url(#mask0_343_458)">
<rect width="183.78" height="78.63" fill="black"/>
</g>
<path d="M60.8984 43.71V32.5068H63.0625L68.6719 41.0615V32.5068H70.3672V43.71H68.5625L62.5938 34.6084V43.71H60.8984ZM72.1641 43.71V32.5068H73.9922V43.71H72.1641ZM80.3906 39.4756V38.1084H85.75V43.71H84.5469L84.1797 42.0928C83.5391 43.3115 82.2578 43.9756 80.4297 43.9756C77.3516 43.9756 75.5078 42.1084 75.5078 38.4443V37.8975C75.5078 34.1787 77.4531 32.2412 80.8125 32.2412C83.9141 32.2412 85.5078 33.8818 85.6094 36.3975H83.75C83.6484 34.71 82.5938 33.624 80.7891 33.624C78.7734 33.624 77.3984 34.9912 77.3984 37.8037V38.4131C77.3984 41.2803 78.7031 42.6006 80.8281 42.6006C82.7969 42.6006 83.9375 41.4365 83.9375 39.8037V39.4756H80.3906ZM87.3984 43.71V32.5068H95.6016V33.8975H89.2266V37.335H94.6406V38.6709H89.2266V42.335H95.6719V43.71H87.3984ZM97.0703 43.71V32.5068H102.836C104.922 32.5068 106.203 33.7881 106.203 35.7021V35.8584C106.203 37.335 105.438 38.3506 104.055 38.6631C104.75 38.8662 105.164 39.4209 105.422 40.46L105.742 41.8037C105.984 42.7725 106.258 43.3662 106.609 43.6318V43.71H104.438C104.227 43.2725 104.094 42.749 103.914 41.9053L103.703 40.874C103.469 39.749 102.93 39.2725 101.906 39.2725H98.8984V43.71H97.0703ZM102.375 37.9521C103.617 37.9521 104.375 37.1943 104.375 35.9834V35.8271C104.375 34.6318 103.617 33.874 102.375 33.874H98.8984V37.9521H102.375ZM107.727 43.71V32.5068H109.555V43.71H107.727ZM110.547 43.71L114.766 32.5068H116.789L121.008 43.71H119.078L118.109 40.9678H113.375L112.414 43.71H110.547ZM113.836 39.6631H117.641L115.734 34.2646L113.836 39.6631Z" fill="#F2F2F2"/>
<path d="M60 39.7256H121.109V40.5068H60V39.7256Z" fill="#F2F2F2"/>
<defs>
<clipPath id="clip0_343_458">
<rect width="183.78" height="78.63" fill="white"/>
</clipPath>
<clipPath id="clip1_343_458">
<rect width="183.764" height="78.63" fill="white" transform="translate(0.0078125)"/>
</clipPath>
</defs>
</svg>
