<svg width="184" height="79" viewBox="0 0 184 79" fill="none" xmlns="http://www.w3.org/2000/svg">
<mask id="mask0_343_474" style="mask-type:alpha" maskUnits="userSpaceOnUse" x="0" y="0" width="184" height="79">
<g clip-path="url(#clip0_343_474)">
<g clip-path="url(#clip1_343_474)">
<path d="M114.635 77.9057C125.747 77.9057 135.025 71.2486 137.255 62.3741C139.487 71.2486 148.765 77.9057 159.877 77.9057C172.655 77.9057 183.013 69.1062 183.013 58.2508C183.013 48.8099 175.177 40.9275 164.731 39.0324C175.177 37.1374 183.013 29.2549 183.013 19.814C183.013 8.95867 172.655 0.15918 159.877 0.15918C148.765 0.15918 139.487 6.81622 137.255 15.6908C135.025 6.81622 125.747 0.15918 114.635 0.15918C103.523 0.15918 94.2447 6.81622 92.0139 15.6908C89.7831 6.81622 80.5048 0.15918 69.3932 0.15918C58.2808 0.15918 49.0024 6.81622 46.7716 15.6908C44.5408 6.81622 35.2625 0.15918 24.1509 0.15918C11.3731 0.15918 1.01514 8.95867 1.01514 19.814C1.01514 29.2549 8.85075 37.1374 19.2971 39.0324C8.85075 40.9275 1.01514 48.8099 1.01514 58.2508C1.01514 69.1062 11.3731 77.9057 24.1509 77.9057C35.2625 77.9057 44.5408 71.2486 46.7716 62.3741C49.0024 71.2486 58.2808 77.9057 69.3932 77.9057C80.5048 77.9057 89.7831 71.2486 92.0139 62.3741C94.2438 71.2486 103.523 77.9057 114.635 77.9057Z" fill="#37B669"/>
</g>
</g>
</mask>
<g mask="url(#mask0_343_474)">
<rect width="183.78" height="78.63" fill="#E8A020"/>
</g>
<path d="M63.8984 43.71V32.5068H66.0625L71.6719 41.0615V32.5068H73.3672V43.71H71.5625L65.5938 34.6084V43.71H63.8984ZM82.7891 43.71V38.6709H76.9922V43.71H75.1641V32.5068H76.9922V37.2959H82.7891V32.5068H84.6172V43.71H82.7891ZM86.4141 43.71V32.5068H92.1797C94.0938 32.5068 95.2812 33.6943 95.2812 35.3662V35.4834C95.2812 36.6475 94.7031 37.5381 93.6797 37.9131C94.9062 38.249 95.5781 39.1943 95.5781 40.5693V40.7021C95.5781 42.5146 94.375 43.71 92.3047 43.71H86.4141ZM91.8359 42.3896C93.0234 42.3896 93.7578 41.6631 93.7578 40.5537V40.4209C93.7578 39.3193 93.0234 38.6006 91.8359 38.6006H88.2422V42.3896H91.8359ZM91.6797 37.374C92.7734 37.374 93.4922 36.6709 93.4922 35.6709V35.5381C93.4922 34.5381 92.7734 33.8271 91.6797 33.8271H88.2422V37.3662L91.6797 37.374ZM97.0547 43.71V32.5068H102.82C104.906 32.5068 106.188 33.7881 106.188 35.7021V35.8584C106.188 37.335 105.422 38.3506 104.039 38.6631C104.734 38.8662 105.148 39.4209 105.406 40.46L105.727 41.8037C105.969 42.7725 106.242 43.3662 106.594 43.6318V43.71H104.422C104.211 43.2725 104.078 42.749 103.898 41.9053L103.688 40.874C103.453 39.749 102.914 39.2725 101.891 39.2725H98.8828V43.71H97.0547ZM102.359 37.9521C103.602 37.9521 104.359 37.1943 104.359 35.9834V35.8271C104.359 34.6318 103.602 33.874 102.359 33.874H98.8828V37.9521H102.359ZM112.695 43.9756C109.367 43.9756 107.422 42.0303 107.422 38.335V37.8818C107.422 34.1865 109.367 32.2412 112.703 32.2412C115.82 32.2412 117.422 33.8896 117.508 36.4756V36.4834H115.648V36.4678C115.555 34.71 114.5 33.624 112.68 33.624C110.688 33.624 109.32 34.9912 109.32 37.7959V38.4209C109.32 41.2256 110.688 42.5928 112.688 42.5928C114.516 42.5928 115.672 41.4834 115.742 39.6631V39.6475H117.602V39.6553C117.555 42.3037 115.898 43.9756 112.695 43.9756Z" fill="#F2F2F2"/>
<path d="M63 39.7256H118.18V40.5068H63V39.7256Z" fill="#F2F2F2"/>
<defs>
<clipPath id="clip0_343_474">
<rect width="183.78" height="78.63" fill="white"/>
</clipPath>
<clipPath id="clip1_343_474">
<rect width="183.764" height="78.63" fill="white" transform="translate(0.0078125)"/>
</clipPath>
</defs>
</svg>
