<svg width="184" height="79" viewBox="0 0 184 79" fill="none" xmlns="http://www.w3.org/2000/svg">
<mask id="mask0_343_441" style="mask-type:alpha" maskUnits="userSpaceOnUse" x="0" y="0" width="184" height="79">
<g clip-path="url(#clip0_343_441)">
<g clip-path="url(#clip1_343_441)">
<path d="M114.635 77.9057C125.747 77.9057 135.025 71.2486 137.255 62.3741C139.487 71.2486 148.765 77.9057 159.877 77.9057C172.655 77.9057 183.013 69.1062 183.013 58.2508C183.013 48.8099 175.177 40.9275 164.731 39.0324C175.177 37.1374 183.013 29.2549 183.013 19.814C183.013 8.95867 172.655 0.15918 159.877 0.15918C148.765 0.15918 139.487 6.81622 137.255 15.6908C135.025 6.81622 125.747 0.15918 114.635 0.15918C103.523 0.15918 94.2447 6.81622 92.0139 15.6908C89.7831 6.81622 80.5048 0.15918 69.3932 0.15918C58.2808 0.15918 49.0024 6.81622 46.7716 15.6908C44.5408 6.81622 35.2625 0.15918 24.1509 0.15918C11.3731 0.15918 1.01514 8.95867 1.01514 19.814C1.01514 29.2549 8.85075 37.1374 19.2971 39.0324C8.85075 40.9275 1.01514 48.8099 1.01514 58.2508C1.01514 69.1062 11.3731 77.9057 24.1509 77.9057C35.2625 77.9057 44.5408 71.2486 46.7716 62.3741C49.0024 71.2486 58.2808 77.9057 69.3932 77.9057C80.5048 77.9057 89.7831 71.2486 92.0139 62.3741C94.2438 71.2486 103.523 77.9057 114.635 77.9057Z" fill="#37B669"/>
</g>
</g>
</mask>
<g mask="url(#mask0_343_441)">
<rect width="183.78" height="78.63" fill="#0F2545"/>
</g>
<path d="M69.8828 43.9756C66.5547 43.9756 64.6094 42.0303 64.6094 38.335V37.8818C64.6094 34.1865 66.5547 32.2412 69.8906 32.2412C73.0078 32.2412 74.6094 33.8896 74.6953 36.4756V36.4834H72.8359V36.4678C72.7422 34.71 71.6875 33.624 69.8672 33.624C67.875 33.624 66.5078 34.9912 66.5078 37.7959V38.4209C66.5078 41.2256 67.875 42.5928 69.875 42.5928C71.7031 42.5928 72.8594 41.4834 72.9297 39.6631V39.6475H74.7891V39.6553C74.7422 42.3037 73.0859 43.9756 69.8828 43.9756ZM81.2344 43.9756C77.9453 43.9756 76 42.0303 76 38.335V37.8818C76 34.1865 77.9453 32.2412 81.2344 32.2412C84.5156 32.2412 86.4609 34.1865 86.4609 37.8818V38.335C86.4609 42.0303 84.5156 43.9756 81.2344 43.9756ZM81.2344 42.5928C83.1953 42.5928 84.5625 41.2256 84.5625 38.4209V37.7959C84.5625 34.9912 83.1953 33.624 81.2344 33.624C79.2656 33.624 77.8984 34.9912 77.8984 37.7959V38.4209C77.8984 41.2256 79.2656 42.5928 81.2344 42.5928ZM87.9766 43.71V32.5068H93.7422C95.8281 32.5068 97.1094 33.7881 97.1094 35.7021V35.8584C97.1094 37.335 96.3438 38.3506 94.9609 38.6631C95.6562 38.8662 96.0703 39.4209 96.3281 40.46L96.6484 41.8037C96.8906 42.7725 97.1641 43.3662 97.5156 43.6318V43.71H95.3438C95.1328 43.2725 95 42.749 94.8203 41.9053L94.6094 40.874C94.375 39.749 93.8359 39.2725 92.8125 39.2725H89.8047V43.71H87.9766ZM93.2812 37.9521C94.5234 37.9521 95.2812 37.1943 95.2812 35.9834V35.8271C95.2812 34.6318 94.5234 33.874 93.2812 33.874H89.8047V37.9521H93.2812ZM98.6328 43.71V32.5068H106.836V33.8975H100.461V37.335H105.875V38.6709H100.461V42.335H106.906V43.71H98.6328ZM108.305 43.71V32.5068H110.469L116.078 41.0615V32.5068H117.773V43.71H115.969L110 34.6084V43.71H108.305Z" fill="#F2F2F2"/>
<path d="M64 39.7256H118.672V40.5068H64V39.7256Z" fill="#F2F2F2"/>
<defs>
<clipPath id="clip0_343_441">
<rect width="183.78" height="78.63" fill="white"/>
</clipPath>
<clipPath id="clip1_343_441">
<rect width="183.764" height="78.63" fill="white" transform="translate(0.0078125)"/>
</clipPath>
</defs>
</svg>
