<svg width="48" height="30" viewBox="0 0 48 30" fill="none" xmlns="http://www.w3.org/2000/svg">
<path d="M17.8451 0.000357615C18.1839 0.000717927 18.1839 0.000717927 18.5296 0.00108552C18.788 0.000727297 19.0464 0.000369075 19.3127 0C19.7414 0.00140533 19.7414 0.00140533 20.1787 0.00283904C20.6274 0.00278197 20.6274 0.00278197 21.0852 0.00272373C22.0794 0.00290607 23.0735 0.00493736 24.0677 0.00697435C24.7549 0.00746008 25.4421 0.00783115 26.1292 0.00809167C27.7565 0.00898682 29.3837 0.0110431 31.0109 0.0136551C32.8631 0.0165638 34.7152 0.0179996 36.5673 0.0193086C40.3782 0.0220353 44.1891 0.0266214 48 0.0324224C47.66 1.04073 47.2995 2.02389 46.876 3.0017C46.7587 3.27295 46.6413 3.5442 46.5203 3.82367C46.3981 4.10432 46.2759 4.38498 46.15 4.67414C45.9806 5.0664 45.9806 5.0664 45.8078 5.46659C44.4388 8.62121 43.0125 11.7488 41.6 14.8859C28.4 15.0149 28.4 15.0149 14.9333 15.1465C17.2213 15.4905 19.5093 15.8345 21.8667 16.1889C22.5707 16.3608 23.2747 16.5328 24 16.71C24.7022 16.8418 25.4027 16.9675 26.1073 17.0846C26.2998 17.1174 26.4924 17.1501 26.6907 17.1838C27.2992 17.2872 27.9079 17.3896 28.5167 17.4918C33.3484 18.3049 33.3484 18.3049 35.4667 18.7947C34.0922 22.6416 32.3688 26.2576 30.6667 30C20.5467 30 10.4267 30 0 30C0.490135 28.5631 0.95418 27.2417 1.57083 25.8713C1.64169 25.7129 1.71254 25.5545 1.78555 25.3912C2.0117 24.8858 2.23919 24.381 2.46667 23.8762C2.77841 23.1805 3.08933 22.4845 3.4 21.7884C3.51345 21.5345 3.51345 21.5345 3.62918 21.2754C4.31817 19.7294 4.98011 18.1734 5.62214 16.6082C6.10735 15.4325 6.10735 15.4325 6.4 15.1465C7.16338 15.1274 7.92019 15.1224 8.68333 15.1302C8.89835 15.1314 9.11337 15.1326 9.3349 15.1338C9.86772 15.1369 10.4005 15.1415 10.9333 15.1465C10.9657 14.9598 10.998 14.7731 11.0314 14.5807C11.2039 13.8266 11.4527 13.1819 11.7646 12.4724C11.8812 12.2054 11.9977 11.9383 12.1178 11.6631C12.244 11.3776 12.3701 11.0921 12.5 10.7979C12.7653 10.192 13.0306 9.58597 13.2958 8.97994C13.4332 8.66712 13.5705 8.3543 13.712 8.03201C14.1359 7.06445 14.554 6.09453 14.9708 5.12406C15.1043 4.81391 15.2377 4.50375 15.3751 4.1842C15.6334 3.58348 15.8913 2.98261 16.1488 2.38159C16.2654 2.11124 16.382 1.8409 16.5021 1.56236C16.6563 1.20332 16.6563 1.20332 16.8137 0.837025C17.1835 0.0418114 17.1835 0.0418114 17.8451 0.000357615Z" fill="black"/>
</svg>
