<svg width="48" height="48" viewBox="0 0 48 48" fill="none" xmlns="http://www.w3.org/2000/svg">
  <rect width="48" height="48" rx="10" fill="#1a1a1a"/>
  <g transform="translate(9 14.3) scale(0.81)">
    <path d="M13.7556 0.000286092C14.0168 0.000574341 14.0168 0.000574341 14.2833 0.000868413C14.4824 0.000581838 14.6816 0.00029526 14.8868 0C15.2173 0.00112426 15.2173 0.00112426 15.5544 0.00227124C15.9003 0.00222557 15.9003 0.00222557 16.2532 0.00217899C17.0195 0.00232485 17.7859 0.00394989 18.5522 0.00557948C19.0819 0.00596806 19.6116 0.00626492 20.1413 0.00647334C21.3956 0.00718946 22.6499 0.00883446 23.9043 0.0109241C25.3319 0.013251 26.7596 0.0143996 28.1873 0.0154469C31.1249 0.0176283 34.0624 0.0212971 37 0.0259379C36.7379 0.832583 36.46 1.61911 36.1336 2.40136C36.0431 2.61836 35.9526 2.83536 35.8594 3.05893C35.7652 3.28346 35.671 3.50798 35.574 3.73931C35.4434 4.05312 35.4434 4.05312 35.3102 4.37327C34.2549 6.89697 33.1555 9.39907 32.0667 11.9087C21.8917 12.0119 21.8917 12.0119 11.5111 12.1172C13.2748 12.3924 15.0384 12.6676 16.8556 12.9511C17.3982 13.0887 17.9409 13.2263 18.5 13.368C19.0413 13.4734 19.5812 13.574 20.1244 13.6677C20.2728 13.6939 20.4212 13.7201 20.5741 13.747C21.0432 13.8298 21.5124 13.9117 21.9816 13.9934C25.7061 14.6439 25.7061 14.6439 27.3389 15.0358C26.2794 18.1133 24.9509 21.0061 23.6389 24C15.8381 24 8.03722 24 0 24C0.377812 22.8505 0.735513 21.7934 1.21085 20.6971C1.26547 20.5703 1.32009 20.4436 1.37636 20.313C1.55069 19.9087 1.72604 19.5048 1.90139 19.101C2.14169 18.5444 2.38136 17.9876 2.62083 17.4307C2.70828 17.2276 2.70828 17.2276 2.7975 17.0203C3.32859 15.7835 3.83884 14.5387 4.33373 13.2866C4.70775 12.346 4.70775 12.346 4.93333 12.1172C5.52177 12.1019 6.10515 12.0979 6.6934 12.1042C6.85914 12.1051 7.02489 12.1061 7.19565 12.107C7.60637 12.1095 8.01707 12.1132 8.42778 12.1172C8.45272 11.9678 8.47766 11.8185 8.50336 11.6646C8.63632 11.0613 8.82814 10.5455 9.06853 9.97794C9.15839 9.76428 9.24825 9.55063 9.34083 9.33049C9.43805 9.10209 9.53526 8.87368 9.63542 8.63836C9.83995 8.15358 10.0444 7.66878 10.2489 7.18395C10.3547 6.9337 10.4606 6.68344 10.5697 6.4256C10.8964 5.65156 11.2187 4.87562 11.54 4.09925C11.6429 3.85113 11.7457 3.603 11.8517 3.34736C12.0507 2.86678 12.2495 2.38609 12.4481 1.90527C12.5379 1.689 12.6278 1.47272 12.7204 1.24989C12.8392 0.962654 12.8392 0.962654 12.9605 0.66962C13.2456 0.0334491 13.2456 0.0334491 13.7556 0.000286092Z" fill="#E8A020"/>
  </g>
</svg>
